:SAMPLES-PER-SECOND 30
:FULLY-SPECIFIED
:DEGREES
884
root  -16.1779 39.9273 36.1489 176.3 -62.2134 177.676
RightUpLeg  -13.7893 -14.4683 -5.69948
RightLeg  27.5047 6.57008 3.48781
RightFoot  -3.24718 -0.87017 11.946
RightToes  -1.33073e-015 0 -3.6325e-017
Spine  7.44004 -1.19583 -5.11977
Spine1  6.95661 -0.599846 -5.17891
HEad  -10.5185 -22.5278 -0.429655
LeftShoulder1  0.337749 2.5793 -30.4181
LeftArm  -5.54536 -9.61309 -37.5858
LeftForeArm  20.3546 -10.4664 -7.49457
LeftHand  -0.0813724 3.35615 3.41182
RightShoulder  -0.308117 -4.43904 25.7797
RightArm  15.2132 4.63718 54.7001
RightForeArm  10.5197 13.0959 6.38787
RightHand  -0.281667 3.56362 -3.90366
LeftUpLeg  1.84643 9.90571 2.65815
LeftLeg  12.621 9.13944 -0.0485324
LeftFoot  -7.29519 0.0293679 0.574823
LeftToes  -1.03319e-009 7.52634e-011 -3.26162e-012
885
root  -16.6801 39.9715 35.9841 176.77 -61.546 177.454
RightUpLeg  -13.8466 -16.2965 -4.79006
RightLeg  19.7612 6.6055 2.37466
RightFoot  -2.80823 -0.862274 11.2616
RightToes  -1.33073e-015 0 -3.6325e-017
Spine  7.29493 -1.4218 -5.05124
Spine1  7.34117 -0.746163 -5.01638
HEad  -10.9702 -21.252 -0.152478
LeftShoulder1  0.271518 2.75134 -29.9956
LeftArm  -4.43299 -10.8762 -38.0268
LeftForeArm  19.666 -12.2059 -7.19115
LeftHand  -0.0297524 5.58037 2.02233
RightShoulder  -0.318036 -4.46924 25.7947
RightArm  14.2797 3.33433 54.8967
RightForeArm  9.749 13.6045 6.03883
RightHand  -0.29116 3.3398 -4.11014
LeftUpLeg  3.3006 9.80731 2.46209
LeftLeg  10.993 10.0502 -0.232121
LeftFoot  -7.50534 0.0222181 0.669012
LeftToes  -1.03319e-009 7.52634e-011 -3.26162e-012
886
root  -17.1524 40 35.7655 177.496 -61.3668 177.209
RightUpLeg  -13.6848 -16.9107 -4.39806
RightLeg  12.1005 4.66128 1.92447
RightFoot  -1.99824 -0.865711 10.4265
RightToes  -1.33073e-015 0 -3.6325e-017
Spine  6.64043 -1.68524 -4.78491
Spine1  8.14747 -0.875302 -5.0032
HEad  -11.0304 -19.5265 -1.06928
LeftShoulder1  0.316249 2.61615 -29.5016
LeftArm  -3.55712 -12.1376 -38.6846
LeftForeArm  17.5771 -12.7766 -7.18826
LeftHand  -0.0863617 3.15884 3.93627
RightShoulder  -0.334468 -4.50726 26.2212
RightArm  13.3477 2.33285 54.8095
RightForeArm  9.3928 13.3191 5.97816
RightHand  -0.329596 3.56351 -4.52793
LeftUpLeg  4.12425 9.48104 2.17792
LeftLeg  9.94372 10.5172 -0.17485
LeftFoot  -7.80702 0.038457 0.279569
LeftToes  -1.03319e-009 7.52634e-011 -3.26162e-012
887
root  -17.6447 40.0246 35.5166 178.196 -61.4356 176.875
RightUpLeg  -12.5419 -12.0709 -5.70252
RightLeg  4.40986 -2.95242 2.89606
RightFoot  -0.791461 -0.862772 9.24949
RightToes  -1.33073e-015 0 -3.6325e-017
Spine  6.38946 -1.84558 -4.30901
Spine1  8.39283 -0.997775 -4.83041
HEad  -10.1079 -17.3338 -1.3722
LeftShoulder1  0.303532 2.65625 -29.7
LeftArm  -2.95983 -13.4368 -39.192
LeftForeArm  17.5945 -13.3779 -7.04673
LeftHand  -0.0557381 4.20634 3.22938
RightShoulder  -0.342071 -4.5292 26.2669
RightArm  12.2247 1.12468 54.6118
RightForeArm  10.4524 12.3522 6.00597
RightHand  -0.29706 3.84467 -3.9948
LeftUpLeg  5.1162 9.33629 2.02026
LeftLeg  8.8553 10.5791 -0.362279
LeftFoot  -7.98993 0.0417797 0.212238
LeftToes  -1.03319e-009 7.52634e-011 -3.26162e-012
888
root  -18.2055 39.9806 35.1896 179.157 -61.3114 175.849
RightUpLeg  -11.278 -9.77468 -6.34129
RightLeg  -2.00403 -7.17791 3.3541
RightFoot  -0.438057 -0.925168 9.64297
RightToes  -1.33073e-015 0 -3.6325e-017
Spine  6.17181 -1.88479 -4.21015
Spine1  8.83571 -1.07078 -4.53522
HEad  -5.84171 -12.9024 -2.17071
LeftShoulder1  0.284015 2.71533 -29.9019
LeftArm  -2.56242 -14.3075 -39.7249
LeftForeArm  17.7662 -13.7539 -6.94887
LeftHand  -0.0175407 6.03457 1.90295
RightShoulder  -0.348107 -4.54604 26.3186
RightArm  10.9143 0.433198 54.4098
RightForeArm  12.5185 10.3261 6.1662
RightHand  -0.281597 3.75771 -3.83054
LeftUpLeg  6.57365 9.10685 1.57474
LeftLeg  8.00437 10.8691 -0.404267
LeftFoot  -8.55122 0.056041 -0.193999
LeftToes  -1.03319e-009 7.52634e-011 -3.26162e-012
889
root  -18.796 39.8709 34.7789 -179.863 -60.9315 174.579
RightUpLeg  -10.8222 -9.3304 -6.38219
RightLeg  -4.90848 -9.30466 3.02649
RightFoot  -0.755813 -0.863438 9.23834
RightToes  -1.33073e-015 0 -3.6325e-017
Spine  6.0668 -1.74487 -3.93571
Spine1  9.10325 -0.855031 -4.6588
HEad  -7.75107 -12.1303 -2.90965
LeftShoulder1  0.324387 2.60043 -29.8049
LeftArm  -2.43685 -14.4313 -40.6275
LeftForeArm  18.4051 -13.456 -7.05658
LeftHand  -0.0300206 4.68701 1.01212
RightShoulder  -0.355571 -4.56312 26.5009
RightArm  9.83939 -0.347008 53.8983
RightForeArm  14.2132 8.32995 6.10239
RightHand  -0.234678 3.68444 -3.25885
LeftUpLeg  8.06513 9.20147 1.31083
LeftLeg  7.88787 11.0442 -0.566616
LeftFoot  -9.59916 0.06771 -0.685019
LeftToes  -1.03319e-009 7.52634e-011 -3.26162e-012
890
root  -19.4109 39.7413 34.3112 -179.053 -60.9958 173.565
RightUpLeg  -10.7622 -9.49728 -6.52763
RightLeg  -4.70195 -11.9815 3.27552
RightFoot  -0.724231 -0.74417 7.93135
RightToes  -1.33073e-015 0 -3.6325e-017
Spine  5.99945 -1.87236 -3.38731
Spine1  9.12116 -0.947846 -4.7381
HEad  -14.7181 -15.6707 -2.39574
LeftShoulder1  0.3463 2.53352 -29.5991
LeftArm  -2.75355 -14.0474 -41.6303
LeftForeArm  19.0239 -12.7017 -7.28205
LeftHand  -0.035402 3.47266 0.996754
RightShoulder  -0.333385 -4.49358 26.5574
RightArm  9.08406 -1.07683 53.3458
RightForeArm  15.4188 6.32043 5.85727
RightHand  -0.215807 3.43751 -3.0858
LeftUpLeg  9.32703 9.29914 1.2824
LeftLeg  8.20519 10.6412 -0.624733
LeftFoot  -10.8575 0.0707894 -1.33914
LeftToes  -1.03319e-009 7.52634e-011 -3.26162e-012
891
root  -20.0391 39.6065 33.7956 -178.59 -60.745 172.661
RightUpLeg  -10.4719 -9.93679 -6.54752
RightLeg  -2.72014 -13.1819 3.31281
RightFoot  0.331094 -0.69019 6.73888
RightToes  -1.33073e-015 0 -3.6325e-017
Spine  5.88489 -1.77103 -3.1636
Spine1  9.84206 -1.03969 -3.96704
HEad  -15.8098 -14.5926 -2.90123
LeftShoulder1  0.252317 2.80614 -30.0356
LeftArm  -2.04274 -13.9158 -42.1718
LeftForeArm  19.5938 -12.2723 -7.64111
LeftHand  -0.0467424 3.7798 1.56057
RightShoulder  -0.34267 -4.52226 26.5457
RightArm  8.28153 -1.36081 52.713
RightForeArm  15.7557 4.53278 5.51314
RightHand  -0.192263 2.69415 -2.97195
LeftUpLeg  11.1091 9.45306 1.42327
LeftLeg  8.1928 10.4774 -0.760515
LeftFoot  -11.9114 0.0623058 -1.91451
LeftToes  -1.03319e-009 7.52634e-011 -3.26162e-012
